<svg width="159" height="240" viewBox="0 0 159 240" fill="none" xmlns="http://www.w3.org/2000/svg">
<path d="M158.5 0L87 39.5V56.4124V130.912C79 133.412 79 132.912 71.5 132.912V90.4124L0 122.912V170.912C11 267.412 151 255.912 158.5 170.912V0Z" fill="url(#paint0_linear_30_158)"/>
<path d="M77.9136 131.876L50.0166 156.459C49.3703 157.029 49 157.848 49 158.71V180C49 181.657 50.3431 183 52 183H78H104C105.657 183 107 181.657 107 180V158.585C107 157.797 106.69 157.04 106.137 156.479L82.0338 132.021C80.9164 130.887 79.1079 130.823 77.9136 131.876Z" stroke="#F5F5F5" stroke-width="20"/>
<defs>
<linearGradient id="paint0_linear_30_158" x1="133.242" y1="20" x2="38.5" y2="169.5" gradientUnits="userSpaceOnUse">
<stop offset="0.130088" stop-color="#F74800"/>
<stop offset="1" stop-color="#FD8000"/>
</linearGradient>
</defs>
</svg>
